<?xml version="1.0" encoding="UTF-8" standalone="no"?>
<!-- Created with Inkscape (http://www.inkscape.org/) -->

<svg
   width="210mm"
   height="297mm"
   viewBox="0 0 210 297"
   version="1.1"
   id="svg1"
   xml:space="preserve"
   sodipodi:docname="drawing.svg"
   inkscape:version="1.4.1 (93de688d07, 2025-03-30)"
   xmlns:inkscape="http://www.inkscape.org/namespaces/inkscape"
   xmlns:sodipodi="http://sodipodi.sourceforge.net/DTD/sodipodi-0.dtd"
   xmlns="http://www.w3.org/2000/svg"
   xmlns:svg="http://www.w3.org/2000/svg"><sodipodi:namedview
     id="namedview1"
     pagecolor="#505050"
     bordercolor="#eeeeee"
     borderopacity="1"
     inkscape:showpageshadow="0"
     inkscape:pageopacity="0"
     inkscape:pagecheckerboard="0"
     inkscape:deskcolor="#505050"
     inkscape:document-units="mm"
     inkscape:zoom="0.87214505"
     inkscape:cx="323.34071"
     inkscape:cy="473.54508"
     inkscape:window-width="2538"
     inkscape:window-height="1381"
     inkscape:window-x="0"
     inkscape:window-y="0"
     inkscape:window-maximized="1"
     inkscape:current-layer="layer1" /><defs
     id="defs1"><inkscape:path-effect
       effect="fillet_chamfer"
       id="path-effect5"
       is_visible="true"
       lpeversion="1"
       nodesatellites_param="F,0,0,1,0,2.0260367,0,1 @ F,0,0,1,0,4.68956,0,1 @ F,0,0,1,0,0,0,1 @ F,0,0,1,0,0,0,1 @ F,0,0,1,0,0,0,1 @ F,0,0,1,0,0,0,1 @ F,0,0,1,0,0,0,1 @ F,0,0,1,0,0,0,1 @ F,0,0,1,0,0,0,1 @ F,0,0,1,0,0,0,1 @ F,0,0,1,0,0,0,1 @ F,0,0,1,0,3.6613828,0,1 @ F,0,0,1,0,2.6981806,0,1 @ F,0,0,1,0,4.887094,0,1 @ F,0,0,1,0,4.8428854,0,1 @ F,0,0,1,0,0,0,1 @ F,0,0,1,0,0,0,1 @ F,0,0,1,0,0,0,1 @ F,0,0,1,0,0,0,1 @ F,0,0,1,0,0,0,1"
       radius="0"
       unit="px"
       method="auto"
       mode="F"
       chamfer_steps="1"
       flexible="false"
       use_knot_distance="true"
       apply_no_radius="true"
       apply_with_radius="true"
       only_selected="false"
       hide_knots="false" /><inkscape:path-effect
       effect="fillet_chamfer"
       id="path-effect3"
       is_visible="true"
       lpeversion="1"
       nodesatellites_param="F,0,0,1,0,0,0,1 @ F,0,0,1,0,0,0,1 @ F,0,0,1,0,0,0,1 @ F,0,0,1,0,0,0,1 @ F,0,0,1,0,0,0,1 @ F,0,0,1,0,0,0,1 @ F,0,0,1,0,0,0,1 @ F,0,0,1,0,0,0,1 @ F,0,0,1,0,0,0,1 @ F,0,0,1,0,0,0,1 @ F,0,0,1,0,0,0,1 @ F,0,0,1,0,0,0,1 @ F,0,0,1,0,0,0,1 @ F,0,0,1,0,0,0,1 @ F,0,0,1,0,0,0,1 @ F,0,0,1,0,0,0,1"
       radius="0"
       unit="px"
       method="auto"
       mode="F"
       chamfer_steps="1"
       flexible="false"
       use_knot_distance="true"
       apply_no_radius="true"
       apply_with_radius="true"
       only_selected="false"
       hide_knots="false" /><inkscape:path-effect
       effect="fillet_chamfer"
       id="path-effect2"
       is_visible="true"
       lpeversion="1"
       nodesatellites_param="F,0,0,1,0,0,0,1 @ F,0,0,1,0,0,0,1 @ F,0,0,1,0,2.5789511,0,1 @ F,0,0,1,0,0,0,1 @ F,0,0,1,0,0,0,1 @ F,0,0,1,0,0,0,1 @ F,0,0,1,0,0,0,1 @ F,0,0,1,0,0,0,1 @ F,0,0,1,0,0,0,1 @ F,0,0,1,0,0,0,1"
       radius="0"
       unit="px"
       method="auto"
       mode="F"
       chamfer_steps="1"
       flexible="false"
       use_knot_distance="true"
       apply_no_radius="true"
       apply_with_radius="true"
       only_selected="false"
       hide_knots="false" /><inkscape:path-effect
       effect="fillet_chamfer"
       id="path-effect1"
       is_visible="true"
       lpeversion="1"
       nodesatellites_param="F,0,0,1,0,0,0,1 @ F,0,0,1,0,0,0,1 @ F,0,0,1,0,0,0,1 @ F,0,0,1,0,0,0,1 @ F,0,0,1,0,0,0,1 @ F,0,0,1,0,0,0,1 @ F,0,0,1,0,0,0,1 @ F,0,0,1,0,0,0,1 @ F,0,0,1,0,0,0,1 @ F,0,0,1,0,0,0,1"
       radius="0"
       unit="px"
       method="auto"
       mode="F"
       chamfer_steps="1"
       flexible="false"
       use_knot_distance="true"
       apply_no_radius="true"
       apply_with_radius="true"
       only_selected="false"
       hide_knots="false" /></defs><g
     inkscape:label="Layer 1"
     inkscape:groupmode="layer"
     id="layer1"><g
       id="g28"
       transform="translate(20.174157,8.6460674)"
       inkscape:label="bSIcon"
       inkscape:export-filename="bootStation Logo.png"
       inkscape:export-xdpi="96"
       inkscape:export-ydpi="96"><rect
         style="opacity:1;fill:#000000;fill-opacity:1;stroke:none;stroke-width:3.47418;stroke-dasharray:none"
         id="rect27"
         width="81"
         height="81"
         x="64.5"
         y="78.190926"
         inkscape:label="BackDrop" /><g
         id="g27"
         transform="translate(-21.762998,5.3340696)"
         inkscape:label="bSLogo"><path
           style="baseline-shift:baseline;display:inline;overflow:visible;opacity:1;vector-effect:none;fill:#ffffff;enable-background:accumulate;stop-color:#000000;stop-opacity:1"
           d="m 41.002242,87.739421 c -0.08484,0.848546 -0.018,1.73151 0.234364,2.565561 0.726253,2.400259 4.932028,4.30014 7.449325,4.892936 9.219304,2.171048 17.111666,-1.418814 17.111666,-1.418814 0,0 7.646261,-3.480421 13.813071,-5.232881 2.75116,-0.78181 9.170978,-2.868185 9.170978,-2.868185 0,0 8.764126,-3.485998 11.283794,-1.48738 1.39701,1.108109 -2.109392,1.746275 -6.817012,3.520275 -4.70762,1.77401 -10.89901,3.89956 -10.89901,3.89956 l -15.169742,5.094745 2.155393,8.078262 6.961519,-2.38882 26.186692,-9.86998 c 1.89219,-0.71318 4.72935,-2.377823 5.68974,-4.145874 0.37661,-0.693335 0.70645,-1.496401 0.89718,-2.390529 0.30927,-1.449826 -0.11658,-3.961851 -1.09609,-5.055465 -0.90893,-1.014832 -2.24137,-1.883841 -3.7192,-2.548498 -2.45286,-1.103179 -6.872454,-1.522358 -9.56478,-1.381616 -0.08178,0.0043 -0.163339,0.0087 -0.244625,0.01324 -2.669895,0.149435 -6.882855,1.094232 -9.422443,1.933433 l -28.453146,9.40228 c 0,0 -3.195991,0.834509 -3.810896,-0.139667 -1.343077,-2.127799 3.471318,-3.558377 3.471318,-3.558377 l 13.1858,-5.244931 -0.78861,-6.459315 c -5.47419,2.484186 -20.949422,3.469161 -26.164015,11.058552 -0.632317,0.920282 -1.350363,2.622143 -1.461271,3.731485 z"
           id="path4"
           sodipodi:nodetypes="ascccsscccccssccsccca"
           transform="translate(51.694546,34.472322)"
           inkscape:original-d="m 41.492415,85.781183 c -1.081403,2.578256 -0.645146,6.406383 2.755874,7.921911 10.969658,4.888192 21.549308,0.07601 21.549308,0.07601 0,0 7.646261,-3.480421 13.813071,-5.232881 2.75116,-0.78181 9.170978,-2.868185 9.170978,-2.868185 0,0 8.764126,-3.485998 11.283794,-1.48738 1.39701,1.108109 -2.109392,1.746275 -6.817012,3.520275 -4.70762,1.77401 -10.89901,3.89956 -10.89901,3.89956 l -15.169742,5.094745 2.155393,8.078262 6.961519,-2.38882 29.612802,-11.161307 c 0,0 3.90732,-3.212716 3.26243,-7.927357 -0.44618,-3.261865 -5.54069,-5.745848 -9.600375,-6.255933 -3.293207,-0.41378 -9.950053,0.379803 -9.950053,0.379803 L 56.569916,88.351674 c 0,0 -3.195991,0.834509 -3.810896,-0.139667 -1.343077,-2.127799 3.471318,-3.558377 3.471318,-3.558377 l 13.1858,-5.244931 -0.78861,-6.459315 c -5.874322,2.665766 -23.26516,3.605143 -27.135113,12.831799 z"
           inkscape:path-effect="#path-effect5"
           inkscape:label="SLetter" /><path
           style="display:inline;opacity:1;fill:#fab700;fill-opacity:1;stroke-width:0.0264583"
           d="m 94.091632,57.846035 v 53.556195 l 21.030968,-4.47747 c 1.39309,-0.29659 3.6533,-0.8218 4.93244,-1.44285 3.11109,-1.51051 8.12971,-5.25703 8.12971,-13.709058 0,-12.248518 -5.9751,-14.305606 -9.99389,-14.713732 -4.01879,-0.408125 -7.45273,2.434487 -7.45273,2.434487 v 21.813383 c 0,0 0.0217,2.29871 -1.81537,2.29871 -1.83705,0 -1.81537,-2.29871 -1.81537,-2.29871 l -0.15168,-47.637694 z"
           id="path2"
           sodipodi:nodetypes="ccczzcczccc"
           transform="translate(18.293269,30.821093)"
           inkscape:original-d="m 94.091632,57.846035 v 53.556195 l 23.553388,-5.01449 c 0,0 10.53973,-2.36637 10.53973,-14.614888 0,-12.248518 -5.9751,-14.305606 -9.99389,-14.713732 -4.01879,-0.408125 -7.45273,2.434487 -7.45273,2.434487 v 21.813383 c 0,0 0.0217,2.29871 -1.81537,2.29871 -1.83705,0 -1.81537,-2.29871 -1.81537,-2.29871 l -0.15168,-47.637694 z"
           inkscape:path-effect="#path-effect2"
           inkscape:label="bLetter" /></g></g><path
       style="fill:#7cc2ff;stroke-width:0.0264583"
       d="m 28.668539,137.73033 36.252808,-29.88202 c 0,0 6.618453,-10.957199 3.033707,-15.320221 C 64.370308,88.165067 51.117977,89.039325 51.117977,89.039325 L 4.5505622,123.92696 c 0,0 -11.0246877,0.8423 -14.4101128,-2.42696 -3.3854254,-3.26926 -2.7303364,-13.34832 -2.7303364,-13.34832 l 34.584269,-25.634826 6.067414,5.764043 -32.3089872,23.662923 c 0,0 -3.1042444,2.64809 -1.5168538,4.70224 1.5873906,2.05415 10.6179772,-0.60674 10.6179772,-0.60674 L 51.117977,81.910111 c 0,0 16.752129,-1.12461 22.297752,4.247192 5.545623,5.371802 5.157303,23.056177 5.157303,23.056177 l -46.7191,38.83146 z"
       id="path3"
       sodipodi:nodetypes="cczcczcccczcczccc"
       transform="translate(-74.780899,-22.146067)"
       inkscape:original-d="m 28.668539,137.73033 36.252808,-29.88202 c 0,0 6.618453,-10.957199 3.033707,-15.320221 C 64.370308,88.165067 51.117977,89.039325 51.117977,89.039325 L 4.5505622,123.92696 c 0,0 -11.0246877,0.8423 -14.4101128,-2.42696 -3.3854254,-3.26926 -2.7303364,-13.34832 -2.7303364,-13.34832 l 34.584269,-25.634826 6.067414,5.764043 -32.3089872,23.662923 c 0,0 -3.1042444,2.64809 -1.5168538,4.70224 1.5873906,2.05415 10.6179772,-0.60674 10.6179772,-0.60674 L 51.117977,81.910111 c 0,0 16.752129,-1.12461 22.297752,4.247192 5.545623,5.371802 5.157303,23.056177 5.157303,23.056177 l -46.7191,38.83146 z"
       inkscape:path-effect="#path-effect3"
       inkscape:label="Funny" /></g></svg>
